<svg id="svg96" version="1.1" viewBox="0 0 960 960" xmlns="http://www.w3.org/2000/svg" xmlns:xlink="http://www.w3.org/1999/xlink">
 <g id="g104">
  <image id="image106" width="960" height="960" style="image-rendering:optimizeSpeed" preserveAspectRatio="none" xlink:href="../Slide3.png"/>
  <path id="12" d="m171.9 177.7c209.5-126.8 156.5 286.3 88.84 353.9-36.23 36.23-93.02-122.7-101.7-118.9-22.06 9.452-28.41 29.97-51.58 41.55-98.96 49.48 46.49-255.6 64.48-276.5z" style="fill-opacity:0;stroke-width:11.34;stroke:#0f0"/>
  <path id="54" d="m325.5 63.04c-20.01 42.48 0 75.31 0 114.6 0 32.29 12.7 113.1 38.69 130.4 153.7 102.5 209.8-493.5-38.69-245z" style="fill-opacity:0;stroke-width:11.34;stroke:#0f0"/>
  <path id="8" d="m573.1 61.61c-62.18 19.81-63.02 58.85-48.72 116.1 52.67 210.7 441.5-178.1 48.72-116.1z" style="fill-opacity:0;stroke-width:11.34;stroke:#0f0"/>
  <path id="20" d="m496.9 254.8c144-38.63 112.6 228 91.61 313.9-1.146 4.696-142.5 84.23-153.1 89.67-34.44 17.64-190.5 51.43-139.5-53.24 30.69-62.9 82.6-118 103.9-183.6 17.15-52.73 72.52-113.6 97.08-166.7z" style="fill-opacity:0;stroke-width:10.95;stroke:#0f0"/>
  <path id="46" d="m663.4 295.2c-127.4 199.2 161.3 122.4 249.3 34.39 23.66-23.66-127.9-187.3-173.4-141.9-30.66 30.66-42.64 92.66-75.94 107.5z" style="fill-opacity:0;stroke-width:11.34;stroke:#0f0"/>
  <path id="10" d="m656.2 513c29.71-24.93 64.52-58.22 100.3-71.64 41.39-15.52 102.4-51.97 131.8-2.866 138.3 230.5-461.1 440.9-232.1 74.51z" style="fill-opacity:0;stroke-width:11.34;stroke:#0f0"/>
  <path id="28" d="m518.7 647.6c41.34 6.315 36.86 52.75 71.64 75.94 43.64 29.09 101 30.78 137.6 67.34 88.34 88.34-306.6 229.4-306.6-44.42 0-61.46 50.33-85.78 97.43-98.87z" style="fill-opacity:0;stroke-width:11.34;stroke:#0f0"/>
  <path id="14" d="m83.25 566.2c131-98.67 262.8 204.4 228.1 236-119.8 109-303.6-150.1-228.1-236z" style="fill-opacity:0;stroke-width:11.87;stroke:#0f0"/>
 </g>
</svg>
 