<svg id="svg60" version="1.1" viewBox="0 0 960 960" xmlns="http://www.w3.org/2000/svg" xmlns:xlink="http://www.w3.org/1999/xlink">
 <g id="g68">
  <image id="image70" width="960" height="960" style="image-rendering:optimizeSpeed" preserveAspectRatio="none" xlink:href="slides/Slide1.png"/>
  <path id="31" d="m255.5 294.8c-32-69.83 13.38-226.3 96-198.8 21.39 7.131 9.375 49.31 18.93 54.08 27.82 13.91 70.27-37.99 87.89 14.87 11.84 35.51-74.26 89.34-52.73 110.9 56.91 56.91 162.5 68.9 10.82 106.8-87.85 21.96-121.5-45.4-160.9-87.89z" style="fill-opacity:0;stroke-width:11.34;stroke:#0f0"/>
  <path class="44" d="m297.5 370.5c130.7 63.93-193.5 202.7-236.6 181.2-45.67-22.83 46.9-226.7 70.31-250.1 38.32-38.32 52.85 63.62 56.79 66.25 13.83 9.217 88.79-2.752 109.5 2.704z" style="fill-opacity:0;stroke-width:11.34;stroke:#0f0"/>
  <path id="10" d="m127.6 576.9c-51.86 24.47 26.47 68.75 14.87 91.94-15.68 31.36-28.72 200.4 48.68 123 57.64-57.64 87.94-115 152.8-147.4 24.32-12.16-17.45-52.86-6.761-63.55 26.83-26.83 117.4-68.34 97.35-128.5-26.83-80.48-202 82.99-219 100.1-22.27 22.27-67.32-37.36-87.89 24.34z" style="fill-opacity:0;stroke-width:11.34;stroke:#0f0"/>
  <path id="24" d="m462.4 471.9c-58.94 110.5-159 368.6 68.96 140.6 4.965-4.965 19.61 29.75 25.69 29.75 44.57 0 50.61-16.8 75.72-41.92 38.59-38.59-37.86-54.53-37.86-66.25 0-31.9 102.1-131.5 54.08-155.5-71.79-35.9-115.5 96.85-186.6 93.3z" style="fill-opacity:0;stroke-width:11.34;stroke:#0f0"/>
  <path id="17" d="m274.5 731.5c234.2 18.53 416.3-186.3 244.7 156.8-14.69 29.37-44.38-48.44-67.61-71.66-22.95-22.95-106.6 17.98-135.2 10.82-13.12-3.281 12.61-33.06 1.352-40.56-36.16-24.11-87.78-17.29-43.27-55.44z" style="fill-opacity:0;stroke-width:11.34;stroke:#0f0"/>
  <path id="25" d="m667.9 565.2c0.3822-181.5 179.4 85 154.1 127.1-19.76 32.94-177.7 171.8-198.8 66.25-6.225-31.12 71.2-73.74 44.62-193.4z" style="fill-opacity:0;stroke-width:11.34;stroke:#0f0"/>
  <path id="path92" d="m709.9 340.7c-16.46 56.54 16.86 80.41 51.38 114.9 34.18 34.18 20.64 124.2 67.61 155.5 13.84 9.226 39.45 35.04 63.55 22.99 7.361-3.68 13.18-450-182.5-293.4z" style="fill-opacity:0;stroke-width:11.34;stroke:#0f0"/>
  <path id="16" d="m474.6 190.6c-2.62-37.42 2.704-78.15 2.704-113.6 0-50.41 74.43 21.67 79.77 24.34 18.38 9.189 0.0299-54.42 33.8-45.97 70.79 17.7 141.7 51.14 187.9 97.35 25.74 25.74-64.05 34.31-67.61 37.86-3.929 3.929 64.95 31.21 70.31 41.92 14.95 29.9-56.26 65.73-71.66 81.13-52.12 52.12-67.76-10.82-89.24-10.82-52.53 0-123.9 109.2-146-112.2z" style="fill-opacity:0;stroke-width:11.34;stroke:#0f0"/>
 </g>
</svg>
 