<svg version="1.1" viewBox="0 0 960 960" xmlns="http://www.w3.org/2000/svg" xmlns:xlink="http://www.w3.org/1999/xlink">
 <g>
  <image width="960" height="960" style="image-rendering:optimizeSpeed" preserveAspectRatio="none" xlink:href="../Slide5.png"/>
  <path d="m219.2 190.6c-106.3 62.76-270.1 385.4-38.69 385.4 32.83 0 80.25-6.891 103.2-34.39 40.66-48.79-3.936-351-64.48-351z" style="fill-opacity:0;stroke-width:11.34;stroke:#0f0"/>
  <path d="m514.4 256.8c-46.04 47.52-80.35 99.21-126.1 140.3-69.46 62.43-140.2 326.2 61.53 222.6 153.9-79.04 294.2-408.8 64.53-362.9z" style="fill-opacity:0;stroke-width:11.26;stroke:#0f0"/>
  <path d="m332.4 71.64c-28.98 6.869-71.64 40.74-71.64 75.94 0 287.5 365.5-16.57 192-85.97-52.73-21.09-92.14-9.395-134.7 17.19" style="fill-opacity:0;stroke-width:11.34;stroke:#0f0"/>
  <path d="m279.4 630.4c189.6 30.94 22.02 232.4-104.6 169.1-33.86-16.93-81.67-53.27-81.67-97.43 0-115.2 107.6-71.64 186.3-71.64z" style="fill-opacity:0;stroke-width:11.34;stroke:#0f0"/>
  <path d="m558.8 26.39c-21.28 13.46-16.15 39.66-24.36 60.18-62.35 155.9 206.8 225.9 222.1 210.6 112.7-112.7-96.19-265.5-197.7-270.8z" style="fill-opacity:0;stroke-width:11.34;stroke:#0f0"/>
  <path d="m687.7 353.9c-79.56 0.355-33.1 77.93 20.06 111.8 83.79 53.32 196.3 179.2 196.3-2.866 0-157.6-95.91-162.8-223.5-113.2" style="fill-opacity:0;stroke-width:11.34;stroke:#0f0"/>
  <path d="m610.4 528.7c-78.57 39.28-46.63 73.73-5.731 114.6 31.76 31.76 36.28 115.6 71.64 133.3 37.62 18.81 62.76-34.96 87.4-47.28 28.35-14.18 74.32 13.33 101.7-8.597 109.6-87.64-74.39-172.2-143.3-179.1-38.45-3.845-73.54-10.98-111.8-12.9z" style="fill-opacity:0;stroke-width:11.34;stroke:#0f0"/>
  <path d="m467.1 676.3c23.02-10.55 63.27-44.31 91.7-30.09 36.23 18.12 41.97 65.16 38.69 104.6-21.3 255.6-410.1 82.81-130.4-74.51z" style="fill-opacity:0;stroke-width:11.34;stroke:#0f0"/>
 </g>
</svg>
 